STARTFONT 2.1
FONT kumdor_latin.bdf
SIZE 16 75
FONTBOUNDINGBOX 8 16 0 0
COMMENT "Generated by fontforge, http://fontforge.sourceforge.net"
COMMENT "generated by https://github.com/JonasGruenwald/kumdor_font"
STARTPROPERTIES 9
FAMILY_NAME "kumdor_latin.bdf"
COPYRIGHT ""
PIXEL_SIZE 16
RESOLUTION_X 72
RESOLUTION_Y 72
CHARSET_REGISTRY "ISO10646"
CHARSET_ENCODING "1"
FONT_ASCENT 16
FONT_DESCENT 0
ENDPROPERTIES
CHARS 128
STARTCHAR U+00000
ENCODING 0
SWIDTH 500 0
DWIDTH 8 0
BBX 8 16 0 0
BITMAP
FF
FF
FF
FF
FF
FF
FF
FF
FF
FF
FF
FF
FF
FF
FF
FF
ENDCHAR
STARTCHAR U+00001
ENCODING 1
SWIDTH 500 0
DWIDTH 8 0
BBX 8 16 0 0
BITMAP
FF
FF
FF
FF
FF
FF
FF
FF
FF
FF
FF
FF
FF
FF
FF
FF
ENDCHAR
STARTCHAR U+00002
ENCODING 2
SWIDTH 500 0
DWIDTH 8 0
BBX 1 1 7 0
BITMAP
00
ENDCHAR
STARTCHAR U+00003
ENCODING 3
SWIDTH 500 0
DWIDTH 8 0
BBX 1 1 7 0
BITMAP
00
ENDCHAR
STARTCHAR U+00004
ENCODING 4
SWIDTH 500 0
DWIDTH 8 0
BBX 7 16 1 0
BITMAP
AA
AA
AA
AA
AA
AA
AA
AA
AA
AA
AA
AA
AA
AA
AA
AA
ENDCHAR
STARTCHAR U+00005
ENCODING 5
SWIDTH 500 0
DWIDTH 8 0
BBX 7 16 1 0
BITMAP
AA
AA
AA
AA
AA
AA
AA
AA
AA
AA
AA
AA
AA
AA
AA
AA
ENDCHAR
STARTCHAR U+00006
ENCODING 6
SWIDTH 500 0
DWIDTH 8 0
BBX 7 16 1 0
BITMAP
AA
AA
AA
AA
AA
AA
AA
AA
AA
AA
AA
AA
AA
AA
AA
AA
ENDCHAR
STARTCHAR U+00007
ENCODING 7
SWIDTH 500 0
DWIDTH 8 0
BBX 7 16 1 0
BITMAP
AA
AA
AA
AA
AA
AA
AA
AA
AA
AA
AA
AA
AA
AA
AA
AA
ENDCHAR
STARTCHAR U+00008
ENCODING 8
SWIDTH 500 0
DWIDTH 8 0
BBX 8 16 0 0
BITMAP
FF
FF
AA
AA
FF
FF
AA
AA
FF
FF
AA
AA
FF
FF
AA
AA
ENDCHAR
STARTCHAR U+00009
ENCODING 9
SWIDTH 500 0
DWIDTH 8 0
BBX 8 16 0 0
BITMAP
FF
FF
AA
AA
FF
FF
AA
AA
FF
FF
AA
AA
FF
FF
AA
AA
ENDCHAR
STARTCHAR U+0000A
ENCODING 10
SWIDTH 500 0
DWIDTH 8 0
BBX 7 14 0 2
BITMAP
AA
AA
00
00
AA
AA
00
00
AA
AA
00
00
AA
AA
ENDCHAR
STARTCHAR U+0000B
ENCODING 11
SWIDTH 500 0
DWIDTH 8 0
BBX 7 14 0 2
BITMAP
AA
AA
00
00
AA
AA
00
00
AA
AA
00
00
AA
AA
ENDCHAR
STARTCHAR U+0000C
ENCODING 12
SWIDTH 500 0
DWIDTH 8 0
BBX 7 16 1 0
BITMAP
AA
AA
AA
AA
AA
AA
AA
AA
AA
AA
AA
AA
AA
AA
AA
AA
ENDCHAR
STARTCHAR U+0000D
ENCODING 13
SWIDTH 500 0
DWIDTH 8 0
BBX 7 16 1 0
BITMAP
AA
AA
AA
AA
AA
AA
AA
AA
AA
AA
AA
AA
AA
AA
AA
AA
ENDCHAR
STARTCHAR U+0000E
ENCODING 14
SWIDTH 500 0
DWIDTH 8 0
BBX 7 16 1 0
BITMAP
AA
AA
AA
AA
AA
AA
AA
AA
AA
AA
AA
AA
AA
AA
AA
AA
ENDCHAR
STARTCHAR U+0000F
ENCODING 15
SWIDTH 500 0
DWIDTH 8 0
BBX 7 16 1 0
BITMAP
AA
AA
AA
AA
AA
AA
AA
AA
AA
AA
AA
AA
AA
AA
AA
AA
ENDCHAR
STARTCHAR U+00010
ENCODING 16
SWIDTH 500 0
DWIDTH 8 0
BBX 8 16 0 0
BITMAP
3C
7E
FF
FF
FF
FF
7E
3C
55
55
55
55
55
55
55
55
ENDCHAR
STARTCHAR U+00011
ENCODING 17
SWIDTH 500 0
DWIDTH 8 0
BBX 7 16 1 0
BITMAP
AA
AA
AA
AA
AA
AA
AA
AA
AA
AA
AA
AA
AA
AA
AA
AA
ENDCHAR
STARTCHAR U+00012
ENCODING 18
SWIDTH 500 0
DWIDTH 8 0
BBX 7 16 1 0
BITMAP
AA
AA
AA
AA
AA
AA
AA
AA
AA
AA
AA
AA
AA
AA
AA
AA
ENDCHAR
STARTCHAR U+00013
ENCODING 19
SWIDTH 500 0
DWIDTH 8 0
BBX 7 16 1 0
BITMAP
AA
AA
AA
AA
AA
AA
AA
AA
AA
AA
AA
AA
AA
AA
AA
AA
ENDCHAR
STARTCHAR U+00014
ENCODING 20
SWIDTH 500 0
DWIDTH 8 0
BBX 7 16 1 0
BITMAP
AA
AA
AA
AA
AA
AA
AA
AA
AA
AA
AA
AA
AA
AA
AA
AA
ENDCHAR
STARTCHAR U+00015
ENCODING 21
SWIDTH 500 0
DWIDTH 8 0
BBX 7 16 1 0
BITMAP
AA
AA
AA
AA
AA
AA
AA
AA
AA
AA
AA
AA
AA
AA
AA
AA
ENDCHAR
STARTCHAR U+00016
ENCODING 22
SWIDTH 500 0
DWIDTH 8 0
BBX 7 16 1 0
BITMAP
AA
AA
AA
AA
AA
AA
AA
AA
AA
AA
AA
AA
AA
AA
AA
AA
ENDCHAR
STARTCHAR U+00017
ENCODING 23
SWIDTH 500 0
DWIDTH 8 0
BBX 7 16 1 0
BITMAP
AA
AA
AA
AA
AA
AA
AA
AA
AA
AA
AA
AA
AA
AA
AA
AA
ENDCHAR
STARTCHAR U+00018
ENCODING 24
SWIDTH 500 0
DWIDTH 8 0
BBX 8 12 0 0
BITMAP
07
80
18
60
20
10
23
10
44
88
44
08
ENDCHAR
STARTCHAR U+00019
ENCODING 25
SWIDTH 500 0
DWIDTH 8 0
BBX 8 12 0 4
BITMAP
44
08
44
88
23
10
20
10
18
60
07
80
ENDCHAR
STARTCHAR U+0001A
ENCODING 26
SWIDTH 500 0
DWIDTH 8 0
BBX 7 13 1 1
BITMAP
70
C8
C8
C8
C8
C8
C8
C8
C8
F8
88
60
0E
ENDCHAR
STARTCHAR U+0001B
ENCODING 27
SWIDTH 500 0
DWIDTH 8 0
BBX 5 11 0 1
BITMAP
78
68
78
68
78
68
78
68
78
68
F8
ENDCHAR
STARTCHAR U+0001C
ENCODING 28
SWIDTH 500 0
DWIDTH 8 0
BBX 7 7 1 5
BITMAP
10
38
54
92
10
10
10
ENDCHAR
STARTCHAR U+0001D
ENCODING 29
SWIDTH 500 0
DWIDTH 8 0
BBX 7 7 1 4
BITMAP
10
08
04
FE
04
08
10
ENDCHAR
STARTCHAR U+0001E
ENCODING 30
SWIDTH 500 0
DWIDTH 8 0
BBX 7 7 1 4
BITMAP
10
10
10
92
54
38
10
ENDCHAR
STARTCHAR U+0001F
ENCODING 31
SWIDTH 500 0
DWIDTH 8 0
BBX 7 7 1 4
BITMAP
10
20
40
FE
40
20
10
ENDCHAR
STARTCHAR U+00020
ENCODING 32
SWIDTH 500 0
DWIDTH 8 0
BBX 1 1 7 0
BITMAP
00
ENDCHAR
STARTCHAR U+00021
ENCODING 33
SWIDTH 500 0
DWIDTH 8 0
BBX 1 12 4 2
BITMAP
80
80
80
80
80
80
80
80
80
00
00
80
ENDCHAR
STARTCHAR U+00022
ENCODING 34
SWIDTH 500 0
DWIDTH 8 0
BBX 3 4 3 10
BITMAP
A0
A0
A0
A0
ENDCHAR
STARTCHAR U+00023
ENCODING 35
SWIDTH 500 0
DWIDTH 8 0
BBX 7 12 1 2
BITMAP
44
44
46
7C
C4
44
44
46
7C
C4
44
44
ENDCHAR
STARTCHAR U+00024
ENCODING 36
SWIDTH 500 0
DWIDTH 8 0
BBX 7 12 1 2
BITMAP
10
7C
92
90
90
7C
12
12
92
7C
10
10
ENDCHAR
STARTCHAR U+00025
ENCODING 37
SWIDTH 500 0
DWIDTH 8 0
BBX 7 12 1 2
BITMAP
60
92
94
94
68
10
10
2C
52
52
92
0C
ENDCHAR
STARTCHAR U+00026
ENCODING 38
SWIDTH 500 0
DWIDTH 8 0
BBX 7 12 1 2
BITMAP
30
48
48
48
30
20
52
92
8A
86
44
3A
ENDCHAR
STARTCHAR U+00027
ENCODING 39
SWIDTH 500 0
DWIDTH 8 0
BBX 2 4 3 9
BITMAP
C0
C0
40
80
ENDCHAR
STARTCHAR U+00028
ENCODING 40
SWIDTH 500 0
DWIDTH 8 0
BBX 4 12 3 2
BITMAP
10
20
40
40
80
80
80
80
40
40
20
10
ENDCHAR
STARTCHAR U+00029
ENCODING 41
SWIDTH 500 0
DWIDTH 8 0
BBX 4 12 2 2
BITMAP
80
40
20
20
10
10
10
10
20
20
40
80
ENDCHAR
STARTCHAR U+0002A
ENCODING 42
SWIDTH 500 0
DWIDTH 8 0
BBX 7 9 1 4
BITMAP
10
10
92
54
38
54
92
10
10
ENDCHAR
STARTCHAR U+0002B
ENCODING 43
SWIDTH 500 0
DWIDTH 8 0
BBX 7 9 1 4
BITMAP
10
10
10
10
FE
10
10
10
10
ENDCHAR
STARTCHAR U+0002C
ENCODING 44
SWIDTH 500 0
DWIDTH 8 0
BBX 3 4 1 0
BITMAP
20
40
40
80
ENDCHAR
STARTCHAR U+0002D
ENCODING 45
SWIDTH 500 0
DWIDTH 8 0
BBX 7 1 1 8
BITMAP
FE
ENDCHAR
STARTCHAR U+0002E
ENCODING 46
SWIDTH 500 0
DWIDTH 8 0
BBX 2 2 2 2
BITMAP
C0
C0
ENDCHAR
STARTCHAR U+0002F
ENCODING 47
SWIDTH 500 0
DWIDTH 8 0
BBX 7 10 1 3
BITMAP
02
04
04
08
10
10
20
40
40
80
ENDCHAR
STARTCHAR U+00030
ENCODING 48
SWIDTH 500 0
DWIDTH 8 0
BBX 7 12 1 2
BITMAP
38
44
82
8A
8A
92
92
A2
A2
82
44
38
ENDCHAR
STARTCHAR U+00031
ENCODING 49
SWIDTH 500 0
DWIDTH 8 0
BBX 5 12 2 2
BITMAP
20
60
A0
20
20
20
20
20
20
20
20
F8
ENDCHAR
STARTCHAR U+00032
ENCODING 50
SWIDTH 500 0
DWIDTH 8 0
BBX 7 12 1 2
BITMAP
38
44
82
82
02
04
08
10
20
40
80
FE
ENDCHAR
STARTCHAR U+00033
ENCODING 51
SWIDTH 500 0
DWIDTH 8 0
BBX 7 12 1 2
BITMAP
38
44
82
82
04
18
04
02
82
82
44
38
ENDCHAR
STARTCHAR U+00034
ENCODING 52
SWIDTH 500 0
DWIDTH 8 0
BBX 7 12 1 2
BITMAP
0C
14
14
24
24
44
44
84
FE
04
04
04
ENDCHAR
STARTCHAR U+00035
ENCODING 53
SWIDTH 500 0
DWIDTH 8 0
BBX 7 12 1 2
BITMAP
FC
80
80
80
B8
C4
82
02
02
02
84
78
ENDCHAR
STARTCHAR U+00036
ENCODING 54
SWIDTH 500 0
DWIDTH 8 0
BBX 7 12 1 2
BITMAP
38
44
82
80
80
B8
C4
82
82
82
44
38
ENDCHAR
STARTCHAR U+00037
ENCODING 55
SWIDTH 500 0
DWIDTH 8 0
BBX 7 12 1 2
BITMAP
FE
02
04
04
08
08
10
10
10
20
20
20
ENDCHAR
STARTCHAR U+00038
ENCODING 56
SWIDTH 500 0
DWIDTH 8 0
BBX 7 12 1 2
BITMAP
38
44
82
82
44
38
44
82
82
82
44
38
ENDCHAR
STARTCHAR U+00039
ENCODING 57
SWIDTH 500 0
DWIDTH 8 0
BBX 7 12 1 2
BITMAP
38
44
82
82
82
46
3A
02
02
82
44
38
ENDCHAR
STARTCHAR U+0003A
ENCODING 58
SWIDTH 500 0
DWIDTH 8 0
BBX 1 8 4 4
BITMAP
80
80
00
00
00
00
80
80
ENDCHAR
STARTCHAR U+0003B
ENCODING 59
SWIDTH 500 0
DWIDTH 8 0
BBX 2 10 3 2
BITMAP
40
40
00
00
00
00
40
40
80
80
ENDCHAR
STARTCHAR U+0003C
ENCODING 60
SWIDTH 500 0
DWIDTH 8 0
BBX 6 12 2 2
BITMAP
04
08
10
20
40
80
80
40
20
10
08
04
ENDCHAR
STARTCHAR U+0003D
ENCODING 61
SWIDTH 500 0
DWIDTH 8 0
BBX 7 4 1 6
BITMAP
FE
00
00
FE
ENDCHAR
STARTCHAR U+0003E
ENCODING 62
SWIDTH 500 0
DWIDTH 8 0
BBX 6 12 2 2
BITMAP
80
40
20
10
08
04
04
08
10
20
40
80
ENDCHAR
STARTCHAR U+0003F
ENCODING 63
SWIDTH 500 0
DWIDTH 8 0
BBX 7 12 1 2
BITMAP
38
44
82
82
02
04
08
10
10
00
00
10
ENDCHAR
STARTCHAR U+00040
ENCODING 64
SWIDTH 500 0
DWIDTH 8 0
BBX 7 12 1 2
BITMAP
38
44
82
82
02
72
92
92
92
92
92
6C
ENDCHAR
STARTCHAR U+00041
ENCODING 65
SWIDTH 500 0
DWIDTH 8 0
BBX 7 12 1 2
BITMAP
10
28
28
28
44
44
44
7C
82
82
82
82
ENDCHAR
STARTCHAR U+00042
ENCODING 66
SWIDTH 500 0
DWIDTH 8 0
BBX 7 12 1 2
BITMAP
F8
44
42
42
44
78
44
42
42
42
44
F8
ENDCHAR
STARTCHAR U+00043
ENCODING 67
SWIDTH 500 0
DWIDTH 8 0
BBX 7 12 1 2
BITMAP
38
44
82
82
82
80
80
80
82
82
46
38
ENDCHAR
STARTCHAR U+00044
ENCODING 68
SWIDTH 500 0
DWIDTH 8 0
BBX 7 12 1 2
BITMAP
F8
44
42
42
42
42
42
42
42
42
44
F8
ENDCHAR
STARTCHAR U+00045
ENCODING 69
SWIDTH 500 0
DWIDTH 8 0
BBX 7 12 1 2
BITMAP
FE
80
80
80
80
FC
80
80
80
80
80
FE
ENDCHAR
STARTCHAR U+00046
ENCODING 70
SWIDTH 500 0
DWIDTH 8 0
BBX 7 12 1 2
BITMAP
FE
80
80
80
80
FC
80
80
80
80
80
80
ENDCHAR
STARTCHAR U+00047
ENCODING 71
SWIDTH 500 0
DWIDTH 8 0
BBX 7 12 1 2
BITMAP
38
44
82
82
80
80
9E
82
82
82
42
3E
ENDCHAR
STARTCHAR U+00048
ENCODING 72
SWIDTH 500 0
DWIDTH 8 0
BBX 7 12 1 2
BITMAP
82
82
82
82
82
82
FE
82
82
82
82
82
ENDCHAR
STARTCHAR U+00049
ENCODING 73
SWIDTH 500 0
DWIDTH 8 0
BBX 5 12 2 2
BITMAP
F8
20
20
20
20
20
20
20
20
20
20
F8
ENDCHAR
STARTCHAR U+0004A
ENCODING 74
SWIDTH 500 0
DWIDTH 8 0
BBX 7 12 1 2
BITMAP
02
02
02
02
02
02
02
02
82
82
44
38
ENDCHAR
STARTCHAR U+0004B
ENCODING 75
SWIDTH 500 0
DWIDTH 8 0
BBX 7 12 1 2
BITMAP
82
84
88
88
90
A0
D0
90
88
84
84
82
ENDCHAR
STARTCHAR U+0004C
ENCODING 76
SWIDTH 500 0
DWIDTH 8 0
BBX 7 12 1 2
BITMAP
80
80
80
80
80
80
80
80
80
80
80
FE
ENDCHAR
STARTCHAR U+0004D
ENCODING 77
SWIDTH 500 0
DWIDTH 8 0
BBX 7 12 1 2
BITMAP
82
C6
AA
92
92
82
82
82
82
82
82
82
ENDCHAR
STARTCHAR U+0004E
ENCODING 78
SWIDTH 500 0
DWIDTH 8 0
BBX 7 12 1 2
BITMAP
82
C2
C2
A2
A2
92
92
8A
8A
86
86
82
ENDCHAR
STARTCHAR U+0004F
ENCODING 79
SWIDTH 500 0
DWIDTH 8 0
BBX 7 12 1 2
BITMAP
38
44
82
82
82
82
82
82
82
82
44
38
ENDCHAR
STARTCHAR U+00050
ENCODING 80
SWIDTH 500 0
DWIDTH 8 0
BBX 7 12 1 2
BITMAP
F8
84
82
82
82
84
F8
80
80
80
80
80
ENDCHAR
STARTCHAR U+00051
ENCODING 81
SWIDTH 500 0
DWIDTH 8 0
BBX 7 12 1 2
BITMAP
38
44
82
82
82
82
82
B2
8A
8A
44
3A
ENDCHAR
STARTCHAR U+00052
ENCODING 82
SWIDTH 500 0
DWIDTH 8 0
BBX 7 12 1 2
BITMAP
F8
84
82
82
82
84
F8
88
88
84
82
82
ENDCHAR
STARTCHAR U+00053
ENCODING 83
SWIDTH 500 0
DWIDTH 8 0
BBX 7 12 1 2
BITMAP
38
44
82
80
40
38
04
02
82
82
44
38
ENDCHAR
STARTCHAR U+00054
ENCODING 84
SWIDTH 500 0
DWIDTH 8 0
BBX 7 12 1 2
BITMAP
FE
10
10
10
10
10
10
10
10
10
10
10
ENDCHAR
STARTCHAR U+00055
ENCODING 85
SWIDTH 500 0
DWIDTH 8 0
BBX 7 12 1 2
BITMAP
82
82
82
82
82
82
82
82
82
82
44
38
ENDCHAR
STARTCHAR U+00056
ENCODING 86
SWIDTH 500 0
DWIDTH 8 0
BBX 7 12 1 2
BITMAP
82
82
82
82
44
44
44
44
28
28
10
10
ENDCHAR
STARTCHAR U+00057
ENCODING 87
SWIDTH 500 0
DWIDTH 8 0
BBX 7 12 1 2
BITMAP
82
82
82
82
92
92
92
92
AA
AA
44
44
ENDCHAR
STARTCHAR U+00058
ENCODING 88
SWIDTH 500 0
DWIDTH 8 0
BBX 7 12 1 2
BITMAP
82
82
44
44
28
10
10
28
44
44
82
82
ENDCHAR
STARTCHAR U+00059
ENCODING 89
SWIDTH 500 0
DWIDTH 8 0
BBX 7 12 1 2
BITMAP
82
82
82
44
44
28
10
10
10
10
10
10
ENDCHAR
STARTCHAR U+0005A
ENCODING 90
SWIDTH 500 0
DWIDTH 8 0
BBX 7 12 1 2
BITMAP
FE
02
04
04
08
10
10
20
40
40
80
FE
ENDCHAR
STARTCHAR U+0005B
ENCODING 91
SWIDTH 500 0
DWIDTH 8 0
BBX 3 12 3 2
BITMAP
E0
80
80
80
80
80
80
80
80
80
80
E0
ENDCHAR
STARTCHAR U+0005C
ENCODING 92
SWIDTH 500 0
DWIDTH 8 0
BBX 7 12 1 2
BITMAP
82
82
82
44
44
28
10
7C
10
7C
10
10
ENDCHAR
STARTCHAR U+0005D
ENCODING 93
SWIDTH 500 0
DWIDTH 8 0
BBX 3 12 3 2
BITMAP
E0
20
20
20
20
20
20
20
20
20
20
E0
ENDCHAR
STARTCHAR U+0005E
ENCODING 94
SWIDTH 500 0
DWIDTH 8 0
BBX 7 4 1 10
BITMAP
10
28
44
82
ENDCHAR
STARTCHAR U+0005F
ENCODING 95
SWIDTH 500 0
DWIDTH 8 0
BBX 7 1 1 0
BITMAP
FE
ENDCHAR
STARTCHAR U+00060
ENCODING 96
SWIDTH 500 0
DWIDTH 8 0
BBX 3 6 3 8
BITMAP
80
80
40
40
20
20
ENDCHAR
STARTCHAR U+00061
ENCODING 97
SWIDTH 500 0
DWIDTH 8 0
BBX 7 8 1 2
BITMAP
38
44
02
3A
46
82
46
3A
ENDCHAR
STARTCHAR U+00062
ENCODING 98
SWIDTH 500 0
DWIDTH 8 0
BBX 7 12 1 2
BITMAP
80
80
80
80
B8
C4
82
82
82
82
C4
B8
ENDCHAR
STARTCHAR U+00063
ENCODING 99
SWIDTH 500 0
DWIDTH 8 0
BBX 7 8 1 2
BITMAP
38
44
82
80
80
82
44
38
ENDCHAR
STARTCHAR U+00064
ENCODING 100
SWIDTH 500 0
DWIDTH 8 0
BBX 7 12 1 2
BITMAP
02
02
02
02
3A
46
82
82
82
82
46
3A
ENDCHAR
STARTCHAR U+00065
ENCODING 101
SWIDTH 500 0
DWIDTH 8 0
BBX 7 8 1 2
BITMAP
38
44
82
FE
80
80
42
3C
ENDCHAR
STARTCHAR U+00066
ENCODING 102
SWIDTH 500 0
DWIDTH 8 0
BBX 6 12 1 2
BITMAP
18
24
20
20
FC
20
20
20
20
20
20
20
ENDCHAR
STARTCHAR U+00067
ENCODING 103
SWIDTH 500 0
DWIDTH 8 0
BBX 7 10 1 0
BITMAP
7A
84
84
78
40
7C
82
82
82
7C
ENDCHAR
STARTCHAR U+00068
ENCODING 104
SWIDTH 500 0
DWIDTH 8 0
BBX 7 12 1 2
BITMAP
80
80
80
80
B8
C4
82
82
82
82
82
82
ENDCHAR
STARTCHAR U+00069
ENCODING 105
SWIDTH 500 0
DWIDTH 8 0
BBX 1 11 4 2
BITMAP
80
00
00
80
80
80
80
80
80
80
80
ENDCHAR
STARTCHAR U+0006A
ENCODING 106
SWIDTH 500 0
DWIDTH 8 0
BBX 5 13 1 0
BITMAP
08
00
00
08
08
08
08
08
08
08
08
90
60
ENDCHAR
STARTCHAR U+0006B
ENCODING 107
SWIDTH 500 0
DWIDTH 8 0
BBX 7 12 1 2
BITMAP
80
80
80
80
84
88
90
A0
D0
88
84
82
ENDCHAR
STARTCHAR U+0006C
ENCODING 108
SWIDTH 500 0
DWIDTH 8 0
BBX 3 12 3 2
BITMAP
C0
40
40
40
40
40
40
40
40
40
40
E0
ENDCHAR
STARTCHAR U+0006D
ENCODING 109
SWIDTH 500 0
DWIDTH 8 0
BBX 7 8 1 2
BITMAP
EC
92
92
92
92
92
92
92
ENDCHAR
STARTCHAR U+0006E
ENCODING 110
SWIDTH 500 0
DWIDTH 8 0
BBX 7 8 1 2
BITMAP
B8
C4
82
82
82
82
82
82
ENDCHAR
STARTCHAR U+0006F
ENCODING 111
SWIDTH 500 0
DWIDTH 8 0
BBX 7 8 1 2
BITMAP
38
44
82
82
82
82
44
38
ENDCHAR
STARTCHAR U+00070
ENCODING 112
SWIDTH 500 0
DWIDTH 8 0
BBX 7 10 1 0
BITMAP
B8
C4
82
82
82
82
C4
B8
80
80
ENDCHAR
STARTCHAR U+00071
ENCODING 113
SWIDTH 500 0
DWIDTH 8 0
BBX 7 10 1 0
BITMAP
3A
46
82
82
82
82
46
3A
02
02
ENDCHAR
STARTCHAR U+00072
ENCODING 114
SWIDTH 500 0
DWIDTH 8 0
BBX 5 8 2 2
BITMAP
B0
C8
80
80
80
80
80
80
ENDCHAR
STARTCHAR U+00073
ENCODING 115
SWIDTH 500 0
DWIDTH 8 0
BBX 7 8 1 2
BITMAP
78
84
80
78
04
02
84
78
ENDCHAR
STARTCHAR U+00074
ENCODING 116
SWIDTH 500 0
DWIDTH 8 0
BBX 7 12 1 2
BITMAP
20
20
20
20
FC
20
20
20
20
22
22
1C
ENDCHAR
STARTCHAR U+00075
ENCODING 117
SWIDTH 500 0
DWIDTH 8 0
BBX 7 8 1 2
BITMAP
82
82
82
82
82
82
46
3A
ENDCHAR
STARTCHAR U+00076
ENCODING 118
SWIDTH 500 0
DWIDTH 8 0
BBX 7 8 1 2
BITMAP
82
82
82
44
44
28
28
10
ENDCHAR
STARTCHAR U+00077
ENCODING 119
SWIDTH 500 0
DWIDTH 8 0
BBX 7 8 1 2
BITMAP
82
82
82
92
AA
AA
44
44
ENDCHAR
STARTCHAR U+00078
ENCODING 120
SWIDTH 500 0
DWIDTH 8 0
BBX 7 8 1 2
BITMAP
82
44
28
10
10
28
44
82
ENDCHAR
STARTCHAR U+00079
ENCODING 121
SWIDTH 500 0
DWIDTH 8 0
BBX 7 10 1 0
BITMAP
82
82
44
44
28
28
10
10
20
C0
ENDCHAR
STARTCHAR U+0007A
ENCODING 122
SWIDTH 500 0
DWIDTH 8 0
BBX 7 8 1 2
BITMAP
FE
04
08
10
20
40
80
FE
ENDCHAR
STARTCHAR U+0007B
ENCODING 123
SWIDTH 500 0
DWIDTH 8 0
BBX 3 12 3 2
BITMAP
20
40
40
40
40
80
80
40
40
40
40
20
ENDCHAR
STARTCHAR U+0007C
ENCODING 124
SWIDTH 500 0
DWIDTH 8 0
BBX 1 12 4 2
BITMAP
80
80
80
80
80
00
00
80
80
80
80
80
ENDCHAR
STARTCHAR U+0007D
ENCODING 125
SWIDTH 500 0
DWIDTH 8 0
BBX 3 12 3 2
BITMAP
80
40
40
40
40
20
20
40
40
40
40
80
ENDCHAR
STARTCHAR U+0007E
ENCODING 126
SWIDTH 500 0
DWIDTH 8 0
BBX 7 3 1 7
BITMAP
62
92
8C
ENDCHAR
STARTCHAR U+0007F
ENCODING 127
SWIDTH 500 0
DWIDTH 8 0
BBX 8 12 0 2
BITMAP
FF
FF
FF
FF
FF
FF
FF
FF
FF
FF
FF
FF
ENDCHAR
ENDFONT
